<?xml version="1.0" encoding="UTF-8"?> <svg xmlns="http://www.w3.org/2000/svg" width="300" height="25.513" viewBox="0 0 300 25.513"><g id="Group_9" data-name="Group 9" transform="translate(-1714.259 -399.738)"><g id="Group_7" data-name="Group 7" transform="translate(1714.259 399.738)"><path id="Path_16" data-name="Path 16" d="M1726.9,402.3a12.546,12.546,0,0,1,8.958,3.695,12.952,12.952,0,0,1,2.69,4.028,12.38,12.38,0,0,1,.989,4.941,12.232,12.232,0,0,1-.989,4.92,12.91,12.91,0,0,1-2.69,4,12.541,12.541,0,0,1-8.958,3.7,12.265,12.265,0,0,1-4.93-.991,12.795,12.795,0,0,1-6.719-6.705,12.232,12.232,0,0,1-.989-4.92,12.38,12.38,0,0,1,.989-4.941,12.746,12.746,0,0,1,2.713-4.028,12.908,12.908,0,0,1,4.007-2.706,12.334,12.334,0,0,1,4.93-.989m10.566,12.664a10.427,10.427,0,0,0-3.1-7.508,10.9,10.9,0,0,0-3.383-2.259,10.3,10.3,0,0,0-4.085-.823,10.415,10.415,0,0,0-4.134.823,10.535,10.535,0,0,0-6.434,9.767,10.3,10.3,0,0,0,.823,4.12,10.559,10.559,0,0,0,5.611,5.6,10.391,10.391,0,0,0,4.134.823,10.276,10.276,0,0,0,4.085-.823,10.922,10.922,0,0,0,3.383-2.259,10.5,10.5,0,0,0,2.278-3.341,10.33,10.33,0,0,0,.82-4.12" transform="translate(-1714.259 -402.071)" fill="#161615"></path><path id="Path_17" data-name="Path 17" d="M2014.125,404.9a6.068,6.068,0,0,1,2.551.541,6.464,6.464,0,0,1,3.351,3.476,6.3,6.3,0,0,1,.472,2.421,5.959,5.959,0,0,1-.789,2.957,7.549,7.549,0,0,1-2.034,2.348,6.655,6.655,0,0,1,2.541,2.522,6.983,6.983,0,0,1,.94,3.563,7.055,7.055,0,0,1-.518,2.687,6.773,6.773,0,0,1-3.576,3.7,6.4,6.4,0,0,1-2.637.543h-9.837V404.9Zm4.3,6.45a4.481,4.481,0,0,0-.326-1.724,4.425,4.425,0,0,0-.916-1.4,4,4,0,0,0-1.383-.935,4.456,4.456,0,0,0-1.688-.324h-7.454v8.755h7.454a4.166,4.166,0,0,0,1.688-.348,4.309,4.309,0,0,0,1.383-.955,4.476,4.476,0,0,0,.916-1.4,4.355,4.355,0,0,0,.326-1.675m-3.982,16.24a4.505,4.505,0,0,0,3.377-1.413,4.775,4.775,0,0,0,1.36-3.438,5.028,5.028,0,0,0-.375-1.907,4.836,4.836,0,0,0-2.511-2.635,4.363,4.363,0,0,0-1.851-.4h-7.784v9.793Z" transform="translate(-1978.185 -404.432)" fill="#161615"></path><path id="Path_18" data-name="Path 18" d="M2206.119,418.613a6.113,6.113,0,0,1-.73,3.012,6.68,6.68,0,0,1-1.976,2.21,9.3,9.3,0,0,1-2.92,1.369,13.232,13.232,0,0,1-3.553.469,14.378,14.378,0,0,1-1.742-.119c-.627-.083-1.287-.195-1.977-.341s-1.364-.3-2.024-.482-1.271-.361-1.835-.551l.517-1.711q1.6.378,3.367.756a14.489,14.489,0,0,0,2.943.374h1.552a9.06,9.06,0,0,0,2.448-.326,5.838,5.838,0,0,0,2.048-1.009,5.16,5.16,0,0,0,1.389-1.666,4.8,4.8,0,0,0,.517-2.257,3.541,3.541,0,0,0-.259-1.314,4.419,4.419,0,0,0-.588-1.081,4.3,4.3,0,0,0-1.152-1.034,6.23,6.23,0,0,0-1.46-.66,14.625,14.625,0,0,0-1.576-.375,14.009,14.009,0,0,0-1.507-.186,17.091,17.091,0,0,1-2.588-.3,8.973,8.973,0,0,1-2.541-.915,6.721,6.721,0,0,1-2.213-2.236,5.8,5.8,0,0,1,.94-7.328,9.644,9.644,0,0,1,4.9-2.373c.315-.06.76-.123,1.343-.186a18.241,18.241,0,0,1,1.953-.093,8.3,8.3,0,0,1,1.318.119c.5.077,1.028.189,1.576.328s1.091.3,1.625.468,1,.342,1.41.5a6.925,6.925,0,0,1-.258.873,6.612,6.612,0,0,0-.259.872,26.523,26.523,0,0,0-3.271-.9,15.665,15.665,0,0,0-3.036-.282,11.414,11.414,0,0,0-2.494.282,8.1,8.1,0,0,0-2.33.9,5.445,5.445,0,0,0-1.742,1.553,3.747,3.747,0,0,0-.683,2.259,3.9,3.9,0,0,0,.565,1.831,4.622,4.622,0,0,0,1.458,1.65,4.784,4.784,0,0,0,1.788.706c.6.093,1.208.175,1.838.236h.329a1.81,1.81,0,0,1,.259.02.894.894,0,0,0,.21.027,20.233,20.233,0,0,1,2.637.4,8.856,8.856,0,0,1,2.824,1.2,7.336,7.336,0,0,1,2.118,2.356,5.846,5.846,0,0,1,.846,2.966" transform="translate(-2146.152 -400.207)" fill="#161615"></path><rect id="Rectangle_44" data-name="Rectangle 44" width="2.073" height="24.759" transform="translate(61.331 0.47)" fill="#161615"></rect><path id="Path_19" data-name="Path 19" d="M2469.658,404.927a12.234,12.234,0,0,1,8.779,3.623,12.622,12.622,0,0,1,2.637,3.955,12.416,12.416,0,0,1-2.637,13.579,12.406,12.406,0,0,1-3.928,2.637,12.27,12.27,0,0,1-4.851.965h-7.578V404.927Zm10.4,12.45a9.926,9.926,0,0,0-.823-4.038,10.614,10.614,0,0,0-2.238-3.29,10.768,10.768,0,0,0-3.292-2.232,10.045,10.045,0,0,0-4.051-.82h-5.6v20.616h5.6a10.3,10.3,0,0,0,4.051-.8,10.516,10.516,0,0,0,3.292-2.186,10.288,10.288,0,0,0,2.238-3.264,9.821,9.821,0,0,0,.823-3.991" transform="translate(-2394.066 -404.455)" fill="#161615"></path><rect id="Rectangle_45" data-name="Rectangle 45" width="2.071" height="24.759" transform="translate(89.244 0.47)" fill="#161615"></rect><path id="Path_20" data-name="Path 20" d="M2735.672,402.306q2.589,6.072,5.132,12.123t5.13,12.448l-1.788.469-4.048-9.269h-8.66l-4.048,9.365-1.885-.469Zm3.626,14.03-3.626-9.325c-.221.57-.448,1.157-.684,1.771s-.486,1.285-.749,2.024-.577,1.552-.922,2.445-.721,1.923-1.128,3.085Z" transform="translate(-2633.532 -402.072)" fill="#161615"></path><path id="Path_21" data-name="Path 21" d="M2978.738,400.538V425.2l-16.713-20.1v19.863h-2.07V399.738l16.711,20.1v-19.3Z" transform="translate(-2846.66 -399.738)" fill="#161615"></path></g><g id="Group_8" data-name="Group 8" transform="translate(1858.284 399.761)"><path id="Path_22" data-name="Path 22" d="M3544.188,423.383a16.261,16.261,0,0,1-4.19,2.564,11.711,11.711,0,0,1-4.52.918,12.427,12.427,0,0,1-4.943-.989,12.768,12.768,0,0,1-4.024-2.7,13.152,13.152,0,0,1-2.731-4,11.979,11.979,0,0,1-1.012-4.92,12.148,12.148,0,0,1,1.012-4.941,13.36,13.36,0,0,1,2.731-4.048,12.53,12.53,0,0,1,8.967-3.72,11.4,11.4,0,0,1,3.931.754,19.026,19.026,0,0,1,4.073,2.12l-1.649,1.271a11.169,11.169,0,0,0-6.354-2.074,10.492,10.492,0,0,0-4.143.825,10.643,10.643,0,0,0-5.67,5.673,10.433,10.433,0,0,0-.826,4.141,10.251,10.251,0,0,0,.826,4.117,10.463,10.463,0,0,0,2.28,3.345,10.859,10.859,0,0,0,3.39,2.257,10.415,10.415,0,0,0,4.143.822,10.014,10.014,0,0,0,3.767-.75,13.266,13.266,0,0,0,3.53-2.119Z" transform="translate(-3502.311 -401.399)" fill="#161615"></path><path id="Path_23" data-name="Path 23" d="M3787.34,416.748h-15.111V429.93h-2.071V405.169h2.071v9.511h15.111v-9.511h2.071V429.93h-2.071Z" transform="translate(-3727.2 -404.698)" fill="#161615"></path><path id="Path_24" data-name="Path 24" d="M4009.278,429.93V405.169h14.308v2.07h-12.238V414.3h8.238v2.07h-8.238v11.486h13.087v2.071Z" transform="translate(-3944.573 -404.698)" fill="#161615"></path><path id="Path_25" data-name="Path 25" d="M4176.877,420.441v9.509H4174.9V405.19h7.014a7.223,7.223,0,0,1,3.037.634,7.823,7.823,0,0,1,2.4,1.692,7.732,7.732,0,0,1,1.579,2.448,7.456,7.456,0,0,1,.564,2.844,7.743,7.743,0,0,1-1.2,4.206,6.745,6.745,0,0,1-3.414,2.748l2.589,3.3q.563.706,1.249,1.626t1.386,1.837q.708.923,1.391,1.816c.452.6.854,1.132,1.2,1.6H4190.1l-7.342-9.509Zm0-13.181v11.11h5.038a5.555,5.555,0,0,0,2.209-.444,5.712,5.712,0,0,0,1.789-1.191,5.436,5.436,0,0,0,1.6-3.877,5.7,5.7,0,0,0-.424-2.19,5.306,5.306,0,0,0-1.18-1.772,5.639,5.639,0,0,0-1.789-1.191,5.531,5.531,0,0,0-2.209-.445Z" transform="translate(-4095.132 -404.718)" fill="#161615"></path><path id="Path_26" data-name="Path 26" d="M4388.8,400.8v24.665l-16.71-20.1V425.23h-2.071V400l16.711,20.1V400.8Z" transform="translate(-4272.502 -400)" fill="#161615"></path><path id="Path_27" data-name="Path 27" d="M4599.592,402.568q2.592,6.075,5.132,12.123t5.132,12.448l-1.788.469-4.049-9.269h-8.662l-4.048,9.366-1.884-.471Zm3.627,14.031-3.627-9.323-.684,1.768c-.235.608-.487,1.284-.75,2.024s-.576,1.552-.919,2.446-.723,1.922-1.129,3.085Z" transform="translate(-4471.954 -402.334)" fill="#161615"></path><path id="Path_28" data-name="Path 28" d="M4819.148,420.441v9.509h-1.977V405.19h7.014a7.216,7.216,0,0,1,3.036.634,7.675,7.675,0,0,1,3.977,4.14,7.457,7.457,0,0,1,.565,2.844,7.749,7.749,0,0,1-1.2,4.206,6.74,6.74,0,0,1-3.415,2.748l2.59,3.3q.565.706,1.248,1.626t1.387,1.837q.706.923,1.39,1.816c.452.6.854,1.132,1.2,1.6h-2.59l-7.344-9.509Zm0-13.181v11.11h5.038a5.558,5.558,0,0,0,2.209-.444,5.712,5.712,0,0,0,1.789-1.191,5.427,5.427,0,0,0,1.6-3.877,5.7,5.7,0,0,0-.422-2.19,5.3,5.3,0,0,0-1.18-1.772,5.639,5.639,0,0,0-1.789-1.191,5.535,5.535,0,0,0-2.209-.445Z" transform="translate(-4678.989 -404.718)" fill="#161615"></path><path id="Path_29" data-name="Path 29" d="M3313.964,415.957c1.649-1.324,3.341-2.671,5.115-4.088l-1.009-1.192-4.744,3.793,0-.014q-.653.522-1.273,1.016a.034.034,0,0,1,0,.014l-11.216,8.964,7.528-17.54c.291.65.634,1.451,1.035,2.4s.844,1.975,1.327,3.091c.355.82.729,1.685,1.1,2.552l1.276-1.011-4.736-11.064-10.2,23.7-.338.779,1.615.222.075-.062,2.524-2.014c.355-.283.74-.6,1.165-.931.127-.1.265-.215.4-.314l1.1-.885c.365-.291.737-.591,1.127-.9q1.419-1.147,2.947-2.363t3.009-2.415c.295-.235.607-.485.9-.723,0,0,0,.01.009.016l1.265-1.015Z" transform="translate(-3297.831 -402.613)" fill="#161615"></path><path id="Path_30" data-name="Path 30" d="M3464.854,552.729l.006.007c-.359.283-.694.555-1.039.829.272.634.545,1.275.817,1.9q1.744,4.073,3.672,8.575l1.414-.654-4.639-10.842c-.079.065-.152.129-.23.19" transform="translate(-3448.724 -538.666)" fill="#161615"></path></g></g></svg> 